 <svg  version="1.0" xmlns="http://www.w3.org/2000/svg"  width="300.000000pt" height="168.000000pt" viewBox="0 0 300.000000 168.000000"  preserveAspectRatio="xMidYMid meet">  <g transform="translate(0.000000,168.000000) scale(0.100000,-0.100000)" fill="#787878" stroke="none"> <path d="M762 1483 c-15 -13 -18 -23 -12 -38 6 -15 9 -16 9 -4 1 21 44 43 70 34 24 -7 29 10 5 19 -27 10 -51 7 -72 -11z"/> <path d="M600 1461 c-39 -33 -35 -51 6 -32 23 10 30 9 48 -7 12 -11 32 -25 45 -32 21 -11 23 -10 18 5 -4 9 -7 20 -7 23 0 4 -4 1 -9 -6 -6 -10 -14 -8 -37 11 -16 13 -36 27 -44 30 -9 3 -6 6 10 6 20 1 22 3 10 11 -12 8 -11 10 8 10 13 0 34 -11 47 -25 14 -13 25 -20 25 -15 0 13 -51 50 -69 50 -9 0 -32 -14 -51 -29z"/> <path d="M787 1438 l-37 -30 -8 23 -9 23 -5 -22 c-4 -12 -3 -20 2 -17 10 6 22 -39 14 -58 -3 -8 -1 -18 5 -22 7 -4 11 7 11 30 0 28 7 43 32 65 21 20 36 26 42 20 12 -12 26 -13 26 -1 0 22 -39 16 -73 -11z"/> <path d="M2935 1350 c-33 -22 -56 -40 -51 -40 9 0 116 70 116 76 0 7 -2 5 -65 -36z"/> <path d="M662 1369 c2 -7 11 -14 19 -17 11 -3 11 -1 -1 8 -11 8 -6 9 24 4 23 -4 37 -3 33 3 -9 14 -80 16 -75 2z"/> <path d="M2571 1309 l60 -61 -10 -49 c-6 -27 -17 -65 -26 -85 -8 -19 -10 -32 -5 -29 5 3 14 23 21 43 10 35 13 37 51 38 36 0 46 6 92 57 28 32 66 62 84 68 18 6 31 14 28 16 -12 12 -94 -41 -120 -78 -28 -40 -59 -59 -98 -59 -15 0 -18 4 -13 18 13 30 6 66 -17 87 -44 38 -82 85 -70 85 7 0 32 -18 56 -40 24 -22 51 -40 61 -40 16 0 16 -2 1 -27 l-17 -28 20 24 c27 31 26 41 -3 41 -14 0 -31 8 -38 18 -23 31 -70 62 -94 62 -20 0 -16 -8 37 -61z"/> <path d="M2520 1070 c-20 -6 -21 -8 -5 -8 11 0 29 3 40 8 25 11 -1 11 -35 0z"/> <path d="M10 1057 c0 -8 60 -111 60 -104 0 11 -49 107 -55 107 -3 0 -5 -2 -5 -3z"/> <path d="M2445 1048 c-37 -20 -67 -53 -91 -100 -34 -67 -30 -74 6 -9 40 72 48 81 95 102 22 10 33 19 25 18 -8 0 -24 -5 -35 -11z"/> <path d="M70 932 c0 -26 30 -70 69 -101 56 -45 83 -139 32 -112 -11 6 -22 6 -32 -1 -11 -8 -11 -9 4 -4 9 3 17 1 17 -4 0 -6 6 -10 14 -10 8 0 34 -8 58 -19 42 -18 44 -20 61 -92 21 -90 38 -115 108 -156 30 -17 62 -38 72 -47 9 -9 17 -11 17 -6 0 18 32 11 37 -8 4 -17 43 -29 43 -13 0 10 -56 38 -90 45 -39 9 -128 64 -145 89 -8 13 -23 57 -33 98 -17 71 -19 75 -60 94 -31 14 -41 24 -37 36 9 29 -20 84 -60 115 -21 16 -46 47 -56 69 -10 22 -19 34 -19 27z"/> <path d="M2253 847 c-10 -13 -29 -29 -42 -36 -21 -11 -22 -18 -17 -54 9 -58 26 -73 63 -58 27 11 44 51 22 51 -5 0 -9 -9 -9 -19 0 -20 -32 -37 -50 -26 -15 9 -12 35 4 35 23 0 61 36 47 44 -7 4 -10 2 -9 -5 2 -6 -3 -14 -11 -17 -10 -3 -11 0 -5 9 5 9 -1 8 -19 -4 -27 -17 -27 -17 -27 7 0 27 23 40 54 30 19 -6 19 -5 7 10 -12 14 -11 19 4 36 10 11 15 20 12 20 -3 0 -14 -11 -24 -23z"/> <path d="M2305 826 c-21 -12 -31 -36 -16 -36 6 0 13 5 16 10 8 13 26 3 24 -13 -1 -7 2 -21 6 -31 6 -14 2 -24 -14 -38 -13 -10 -19 -18 -13 -18 14 0 42 28 42 42 0 6 8 16 17 23 15 11 14 12 -11 8 -21 -4 -27 -3 -22 6 4 7 2 18 -4 26 -6 8 -9 19 -5 25 7 12 6 12 -20 -4z"/> <path d="M2362 824 c9 -3 19 -13 22 -22 3 -12 4 -12 3 3 -1 12 -10 21 -22 22 -15 1 -15 0 -3 -3z"/> <path d="M80 761 c0 -11 -16 -35 -35 -52 -19 -18 -35 -37 -35 -42 0 -12 76 65 82 84 4 11 10 10 29 -6 19 -16 21 -17 10 -2 -8 10 -23 23 -33 28 -15 8 -18 6 -18 -10z"/> <path d="M63 680 c-63 -58 -71 -77 -12 -26 35 30 77 77 67 76 -2 -1 -27 -23 -55 -50z"/> <path d="M531 428 c2 -28 2 -29 6 -8 3 14 10 28 17 32 7 5 5 8 -6 8 -14 0 -18 -8 -17 -32z"/> <path d="M571 409 c-19 -7 -22 -12 -13 -21 9 -9 16 -8 29 5 21 21 15 27 -16 16z"/> <path d="M625 396 c21 -15 13 -51 -10 -42 -8 3 -17 0 -21 -6 -4 -6 -3 -8 3 -5 6 4 22 -2 34 -12 19 -16 22 -23 13 -37 -15 -26 -34 -29 -34 -5 0 11 -4 23 -10 26 -6 4 -7 -1 -3 -11 5 -13 3 -15 -8 -9 -11 7 -12 6 -2 -7 7 -8 10 -17 7 -21 -3 -3 6 -4 21 -2 38 4 61 44 34 61 -6 3 -8 17 -5 29 8 31 -2 55 -22 55 -13 0 -13 -2 3 -14z"/> <path d="M480 353 c0 -6 11 -20 25 -31 14 -11 25 -24 25 -29 0 -12 33 -43 46 -43 4 0 -2 7 -15 16 -18 13 -22 23 -18 48 3 17 3 25 0 19 -8 -20 -30 -15 -47 9 -9 12 -16 17 -16 11z"/> <path d="M2234 151 c3 -4 19 -11 36 -15 17 -3 29 -10 25 -15 -3 -5 -1 -12 5 -16 16 -10 12 22 -6 39 -16 17 -69 23 -60 7z"/> <path d="M2185 130 c-16 -18 -17 -25 -7 -54 17 -46 16 -62 -3 -46 -8 7 -15 19 -15 26 0 8 -5 14 -11 14 -6 0 -9 -6 -6 -14 6 -14 -12 -26 -36 -26 -7 0 -6 5 3 11 12 9 12 10 1 7 -8 -3 -17 -10 -19 -18 -4 -10 4 -12 34 -7 28 5 43 2 56 -10 17 -15 18 -14 18 14 0 33 13 52 53 77 16 10 26 20 22 24 -3 4 -9 2 -13 -4 -4 -5 -19 -17 -34 -27 -27 -17 -28 -17 -29 0 0 16 -2 15 -10 -2 -8 -18 -8 -18 -6 5 1 15 8 25 17 25 17 0 27 18 13 22 -5 2 -18 -6 -28 -17z"/> <path d="M2016 117 c-33 -24 -25 -39 14 -26 25 9 34 7 56 -10 15 -12 31 -21 37 -21 5 0 -7 11 -27 25 -27 18 -44 23 -64 19 -15 -4 -24 -4 -21 -1 3 4 23 10 45 15 36 8 37 9 13 14 -17 3 -36 -2 -53 -15z"/> <path d="M2115 131 c3 -5 2 -11 -3 -13 -4 -1 0 -11 10 -20 10 -10 18 -13 18 -7 0 5 5 7 11 3 8 -5 8 -1 0 14 -6 11 -18 22 -26 26 -9 3 -14 2 -10 -3z"/> </g> </svg> 